<?xml version="1.0" encoding="UTF-8" standalone="no"?>
<!-- Created with Inkscape (http://www.inkscape.org/) -->

<svg
   width="39.500435mm"
   height="5.0002279mm"
   viewBox="0 0 39.500435 5.0002279"
   version="1.1"
   id="svg1"
   inkscape:version="1.3 (0e150ed6c4, 2023-07-21)"
   sodipodi:docname="Easy survey.svg"
   xmlns:inkscape="http://www.inkscape.org/namespaces/inkscape"
   xmlns:sodipodi="http://sodipodi.sourceforge.net/DTD/sodipodi-0.dtd"
   xmlns="http://www.w3.org/2000/svg"
   xmlns:svg="http://www.w3.org/2000/svg">
  <sodipodi:namedview
     id="namedview1"
     pagecolor="#ffffff"
     bordercolor="#999999"
     borderopacity="1"
     inkscape:showpageshadow="0"
     inkscape:pageopacity="0"
     inkscape:pagecheckerboard="0"
     inkscape:deskcolor="#d1d1d1"
     inkscape:document-units="mm"
     inkscape:zoom="7.5330527"
     inkscape:cx="313.61788"
     inkscape:cy="825.6281"
     inkscape:window-width="2160"
     inkscape:window-height="1334"
     inkscape:window-x="-11"
     inkscape:window-y="-11"
     inkscape:window-maximized="1"
     inkscape:current-layer="layer1" />
  <defs
     id="defs1" />
  <g
     inkscape:label="Capa 1"
     inkscape:groupmode="layer"
     id="layer1"
     transform="translate(-55.916478,-78.316649)">
    <path
       id="path23"
       style="fill:#9461fa;fill-opacity:1;stroke:#000000;stroke-width:0;stroke-linejoin:round;stroke-dasharray:none;paint-order:markers fill stroke"
       d="m 56.324727,81.716459 v 0.379305 0.03411 c 0,0.173753 -0.01688,0.279163 -0.05013,0.315743 -0.03173,0.03658 -0.09878,0.05478 -0.201538,0.05478 H 55.91648 v 0.668693 h 3.286621 v -1.452624 h -0.553455 c -0.0053,0.03901 -0.0093,0.08371 -0.0155,0.118856 -0.0272,0.160037 -0.06482,0.295701 -0.113171,0.407727 -0.04382,0.09373 -0.106504,0.160087 -0.188102,0.198954 -0.08009,0.03887 -0.226704,0.05839 -0.439767,0.05839 h -0.550871 v -0.783931 z m 1.512053,0 c 0.0015,0.03857 0.0059,0.0625 0.0067,0.104903 h 0.38964 v -0.104903 z m 2.000394,0 -0.06925,0.30024 c -0.03929,0.171464 -0.08616,0.29507 -0.14056,0.37052 -0.05289,0.07545 -0.118827,0.113171 -0.197404,0.113171 h -0.115755 v 0.668693 h 1.391646 V 82.50039 h -0.153995 c -0.06951,0 -0.122934,-0.01125 -0.160714,-0.03411 -0.03778,-0.02287 -0.05684,-0.05497 -0.05684,-0.09612 0,-0.03201 0.0032,-0.06759 0.0093,-0.106454 0.006,-0.03887 0.01697,-0.09264 0.03359,-0.16123 l 0.08372,-0.386023 z m 1.490349,0 0.09715,0.441317 c 0.006,0.03201 0.01037,0.06492 0.01344,0.09922 0.0045,0.03201 0.0067,0.06626 0.0067,0.102836 0,0.05487 -0.01362,0.0926 -0.04082,0.113172 -0.02569,0.01829 -0.09711,0.02739 -0.214974,0.02739 h -0.14056 v 0.668693 h 1.890324 v -0.668693 h -0.163298 c -0.09066,0 -0.156604,-0.02382 -0.197404,-0.07183 -0.0408,-0.0503 -0.08604,-0.192102 -0.135909,-0.425297 l -0.05891,-0.286804 z m 1.654162,0 v 1.473295 h 0.426331 l 0.115238,-0.260449 c 0.167731,0.128024 0.337227,0.222487 0.50798,0.28422 0.170753,0.06401 0.348431,0.09612 0.532784,0.09612 0.403461,0 0.723424,-0.140473 0.960665,-0.421679 0.238751,-0.283494 0.358634,-0.662895 0.358634,-1.138432 0,-0.01163 -0.0019,-0.02157 -0.0021,-0.03307 h -1.243335 c 0.148793,0.114433 0.232027,0.241944 0.232027,0.386023 0,0.146319 -0.0425,0.265635 -0.127124,0.357084 -0.08462,0.08916 -0.196916,0.133325 -0.337447,0.133325 -0.232708,0 -0.435451,-0.101416 -0.607715,-0.304891 -0.12344,-0.148749 -0.220623,-0.340351 -0.293522,-0.571541 z m 4.107243,0 v 0.379305 c 0,0.19433 -0.01688,0.310983 -0.05013,0.349849 -0.03324,0.03658 -0.100851,0.05478 -0.203605,0.05478 H 66.65846 v 0.668693 h 1.89239 v -0.668693 h -0.170015 c -0.110309,0 -0.181174,-0.02168 -0.212907,-0.06511 -0.03173,-0.04572 -0.04754,-0.158901 -0.04754,-0.339514 v -0.379305 z m 3.869015,0 v 1.473295 h 0.42633 l 0.115755,-0.260449 c 0.167731,0.128024 0.33671,0.222487 0.507463,0.28422 0.170753,0.06401 0.348431,0.09612 0.532784,0.09612 0.40346,0 0.723941,-0.140473 0.961182,-0.421679 0.23875,-0.283494 0.35812,-0.662895 0.35812,-1.138432 0,-0.01163 -0.002,-0.02157 -0.002,-0.03307 h -1.243335 c 0.148793,0.114433 0.232028,0.241944 0.232028,0.386023 0,0.146319 -0.0425,0.265635 -0.127124,0.357084 -0.08462,0.08916 -0.196916,0.133325 -0.337448,0.133325 -0.232707,0 -0.43545,-0.101416 -0.607714,-0.304891 -0.123441,-0.148749 -0.220623,-0.340351 -0.293523,-0.571541 z m 3.468004,0 v 0.118856 c 0,0.470964 0.11555,0.835645 0.34675,1.09399 0.2312,0.258344 0.55768,0.387573 0.97927,0.387573 0.4639,0 0.816,-0.13056 1.05627,-0.391191 0.24026,-0.262916 0.36018,-0.645795 0.36018,-1.148767 v -0.06046 h -0.63407 c -0.005,0.298347 -0.0499,0.518513 -0.13643,0.653707 -0.0922,0.144032 -0.24423,0.216007 -0.45578,0.216007 -0.17831,0 -0.30479,-0.07331 -0.38034,-0.219625 -0.0649,-0.128233 -0.0964,-0.355037 -0.10439,-0.650089 z m 3.67213,0 v 0.379305 c 0,0.182898 -0.0158,0.296074 -0.0475,0.339514 -0.0302,0.04343 -0.1,0.06511 -0.20878,0.06511 h -0.15658 v 0.668693 h 1.87483 v -0.668693 h -0.17674 c -0.10729,0 -0.17704,-0.02168 -0.20877,-0.06511 -0.0302,-0.04344 -0.0455,-0.156614 -0.0455,-0.339514 v -0.379305 z m 1.73323,0 c 2.7e-4,0.02079 0.003,0.03184 0.003,0.05374 v 0.394291 c 0,0.388661 0.0638,0.672269 0.19223,0.850595 0.12996,0.178326 0.33651,0.267167 0.61909,0.267167 0.26595,0 0.45836,-0.09794 0.57774,-0.294556 0.11938,-0.198903 0.17932,-0.518091 0.17932,-0.957047 0,-0.02058 -0.001,-0.05135 -0.003,-0.0925 -0.002,-0.04344 -0.002,-0.07554 -0.002,-0.09612 h -0.31523 c 0,0.01829 10e-4,0.04559 0.003,0.08217 0.002,0.03658 0.002,0.06306 0.002,0.07906 0,0.162324 -0.0104,0.283268 -0.0315,0.363285 -0.0196,0.08002 -0.0507,0.120406 -0.093,0.120406 -0.0438,0 -0.0754,-0.0321 -0.0951,-0.09612 -0.0181,-0.0663 -0.0274,-0.184285 -0.0274,-0.353467 0,-0.130573 -0.009,-0.212327 -0.0134,-0.32091 z m 2.15387,0 0.30127,1.452624 h 1.0635 l 0.3173,-1.452624 h -0.62477 l -0.0372,0.173633 -0.0357,-0.173633 z m 2.99413,0 v 0.379305 0.03411 c 0,0.173754 -0.0164,0.279163 -0.0496,0.315743 -0.0317,0.03658 -0.0993,0.05478 -0.20205,0.05478 h -0.15606 v 0.668693 h 3.28662 v -1.452624 h -0.55346 c -0.005,0.03902 -0.009,0.0837 -0.0155,0.118856 -0.0272,0.160036 -0.0653,0.295701 -0.11369,0.407727 -0.0438,0.09373 -0.1065,0.160087 -0.1881,0.198954 -0.0801,0.03887 -0.22619,0.05839 -0.43925,0.05839 h -0.55087 v -0.783931 z m 1.51205,0 c 0.002,0.03858 0.006,0.0625 0.007,0.104903 h 0.38964 v -0.104903 z m 2.7063,0 v 0.379305 c 0,0.19433 -0.0164,0.310983 -0.0496,0.349849 -0.0332,0.03658 -0.10137,0.05478 -0.20412,0.05478 h -0.17673 v 0.668693 h 1.89239 v -0.668693 h -0.17002 c -0.11031,0 -0.18117,-0.02168 -0.21291,-0.06511 -0.0317,-0.04572 -0.0475,-0.158901 -0.0475,-0.339514 v -0.379305 z"
       inkscape:export-filename="logo.svg"
       inkscape:export-xdpi="96"
       inkscape:export-ydpi="96" />
    <path
       id="path24"
       style="fill:#9461fa;fill-opacity:1;stroke:#000000;stroke-width:0;stroke-linejoin:round;stroke-dasharray:none;paint-order:markers fill stroke"
       d="m 56.324727,80.016821 v 1.599902 h 1.017509 V 81.03278 h 0.125057 c 0.143553,0 0.240038,0.04897 0.289905,0.147277 0.03845,0.07361 0.0598,0.233621 0.07286,0.436666 h 0.403076 v -1.599902 h -0.409277 c -0.01424,0.103559 -0.03538,0.188377 -0.06666,0.244429 -0.05591,0.102881 -0.154024,0.153996 -0.294556,0.153996 h -0.120406 v -0.398425 z m 2.329057,0 c 0.01226,0.07037 0.02556,0.112445 0.03721,0.19637 h 0.494027 v -0.19637 z m 1.573548,0 -0.36742,1.599902 h 2.50269 l -0.329179,-1.599902 h -1.057817 l 0.190686,0.961182 h -0.548803 l 0.1788,-0.961182 z m 2.683557,0 c 0.0091,0.170438 0.03243,0.330244 0.0801,0.470772 0.06044,0.171468 0.153116,0.327993 0.278536,0.469739 0.05289,0.06173 0.139006,0.12808 0.258382,0.198954 0.119376,0.07087 0.289428,0.156238 0.510047,0.256832 0.068,0.032 0.161743,0.07239 0.281119,0.120406 0.06285,0.02622 0.112755,0.05484 0.164848,0.0832 h 1.39113 c -0.01883,-0.363227 -0.10987,-0.659084 -0.282153,-0.879016 -0.19342,-0.2492 -0.530266,-0.457356 -1.010792,-0.624251 -0.04684,-0.01599 -0.112782,-0.03767 -0.197403,-0.06511 -0.03016,-0.0094 -0.05154,-0.02133 -0.07906,-0.03152 z m 2.284615,0 c 0.0029,0.01686 0.0072,0.03126 0.0098,0.04858 h 0.523483 v -0.04858 z m 1.391129,0 0.502295,1.262972 v 0.33693 h 1.031462 v -0.33693 l 0.521415,-1.262972 h -0.687813 l -0.148828,0.371037 -0.150379,-0.371037 z m 4.300513,0 c 0.0091,0.170438 0.03243,0.330244 0.0801,0.470772 0.06044,0.171468 0.153117,0.327993 0.278536,0.469739 0.05289,0.06173 0.139006,0.12808 0.258383,0.198954 0.119375,0.07087 0.289427,0.156238 0.510046,0.256832 0.068,0.032 0.161744,0.07239 0.28112,0.120406 0.06285,0.02622 0.112755,0.05484 0.164848,0.0832 h 1.391129 c -0.01883,-0.363227 -0.109869,-0.659084 -0.282153,-0.879016 -0.193419,-0.2492 -0.530265,-0.457356 -1.010791,-0.624251 -0.04684,-0.01599 -0.112784,-0.03767 -0.197404,-0.06511 -0.03016,-0.0094 -0.05154,-0.02133 -0.07906,-0.03152 z m 2.284615,0 c 0.0029,0.01686 0.0072,0.03126 0.0098,0.04858 h 0.523482 v -0.04858 z m 1.254187,0 v 1.599902 h 1.025777 c -1.9e-5,-0.0058 -10e-4,-0.0091 -10e-4,-0.01499 v -1.584916 z m 2.110466,0 v 1.599902 h 0.632002 v -1.599902 z m 1.561661,0 v 1.599902 h 1.030945 v -0.577225 h 0.279053 c 0.173774,0 0.287698,0.04335 0.342098,0.130224 0.04483,0.06782 0.06708,0.230753 0.07596,0.447001 h 0.996839 c -0.01603,-0.303107 -0.04313,-0.544713 -0.0956,-0.652673 -0.07404,-0.157749 -0.216845,-0.256206 -0.428397,-0.295072 0.210041,-0.0663 0.372466,-0.189391 0.487308,-0.370004 0.05368,-0.08442 0.09337,-0.179252 0.121957,-0.282153 h -1.018026 c -0.01871,0.102876 -0.04671,0.190444 -0.09457,0.24753 -0.07707,0.09145 -0.211684,0.137459 -0.403593,0.137459 h -0.271818 v -0.384989 z m 3.534152,0 0.331762,1.599902 h 0.98547 l -0.327112,-1.599902 z m 1.773535,0 -0.342098,1.599902 h 0.625285 l 0.349332,-1.599902 z m 1.573547,0 v 1.599902 h 1.018026 V 81.03278 h 0.12454 c 0.143553,0 0.240038,0.04897 0.289905,0.147277 0.03845,0.07361 0.06032,0.23361 0.07338,0.436666 h 0.40256 v -1.599902 h -0.409278 c -0.01424,0.103559 -0.03538,0.188377 -0.06666,0.244429 -0.05591,0.102881 -0.154025,0.153996 -0.294556,0.153996 h -0.119889 v -0.398425 z m 2.329057,0 c 0.01226,0.07037 0.02556,0.112445 0.03721,0.19637 h 0.494543 v -0.19637 z m 1.386995,0 0.502295,1.262972 v 0.33693 h 1.031462 v -0.33693 l 0.521415,-1.262972 H 90.06272 l -0.148828,0.371037 -0.150379,-0.371037 z m -30.00437,1.207678 c -0.0055,0.147184 -0.01534,0.274835 -0.0279,0.392224 h 0.540019 v -0.392224 z m 28.654582,0 c -0.0055,0.14719 -0.01534,0.274831 -0.02791,0.392224 h 0.540535 v -0.392224 z m -24.363888,0.20929 v 0.182934 h 0.495061 c -0.01618,-0.05952 -0.03286,-0.11845 -0.04599,-0.182934 z m 7.976258,0 v 0.182934 h 0.49506 c -0.01618,-0.05952 -0.03286,-0.11845 -0.04599,-0.182934 z" />
    <path
       id="path25"
       style="fill:#9461fa;fill-opacity:1;stroke:#000000;stroke-width:0;stroke-linejoin:round;stroke-dasharray:none;paint-order:markers fill stroke"
       d="m 64.169727,78.316666 c -0.380795,0 -0.687651,0.14528 -0.920358,0.435633 -0.231197,0.290351 -0.346749,0.671899 -0.346749,1.145149 0,0.0067 0.0015,0.01244 0.0016,0.01912 h 1.192692 c -0.147476,-0.09357 -0.228927,-0.20707 -0.228927,-0.344682 0,-0.13946 0.04469,-0.257445 0.133842,-0.353467 0.09067,-0.09602 0.205662,-0.14366 0.344682,-0.14366 0.237241,0 0.426915,0.08189 0.568957,0.246496 0.119467,0.136521 0.204604,0.337504 0.259933,0.595313 h 0.553455 v -1.48673 H 65.28232 l -0.08372,0.236678 c -0.157149,-0.118887 -0.319574,-0.206914 -0.487304,-0.264067 -0.167731,-0.05715 -0.34815,-0.08578 -0.541569,-0.08578 z m 7.976257,0 c -0.380794,0 -0.68765,0.14528 -0.920357,0.435633 -0.231197,0.290351 -0.346749,0.671899 -0.346749,1.145149 0,0.0067 0.0015,0.01244 0.0015,0.01912 h 1.192692 c -0.147476,-0.09357 -0.228926,-0.20707 -0.228926,-0.344682 0,-0.13946 0.04469,-0.257445 0.133841,-0.353467 0.09067,-0.09602 0.205662,-0.14366 0.344682,-0.14366 0.237241,0 0.426915,0.08189 0.568958,0.246496 0.119467,0.136521 0.204603,0.337504 0.259932,0.595313 h 0.553455 v -1.486731 h -0.446485 l -0.08371,0.236678 c -0.157109,-0.118886 -0.319534,-0.206913 -0.487264,-0.264066 -0.167731,-0.05715 -0.348149,-0.08578 -0.541569,-0.08578 z m -16.2295,0.14056 v 0.665076 h 0.151928 c 0.110311,0 0.18062,0.0222 0.21084,0.06563 0.03022,0.04115 0.04548,0.152998 0.04548,0.335897 v 0.392741 h 1.017509 v -0.794267 h 0.398942 0.09302 c 0.188886,0 0.32569,0.01953 0.410311,0.05839 0.08462,0.03658 0.156557,0.09946 0.215491,0.188619 0.05138,0.07773 0.09444,0.180997 0.129191,0.309025 0.01616,0.05703 0.03022,0.161236 0.04548,0.238229 h 0.550354 v -1.45934 z m 4.669482,0 -0.33538,1.459343 h 0.564307 l 0.06821,-0.365353 0.07235,0.365353 h 1.0573 l -0.30024,-1.459343 z m 5.306136,0 v 0.665076 h 0.08837 c 0.08462,0 0.161483,0.03691 0.230993,0.110071 0.06951,0.07087 0.134891,0.181904 0.195337,0.332796 l 0.140043,0.3514 h 1.067119 l -0.176217,-0.434082 c -0.01814,-0.04572 -0.03069,-0.08211 -0.03824,-0.109554 -0.0061,-0.02744 -0.0093,-0.05392 -0.0093,-0.07906 0,-0.05944 0.01688,-0.102785 0.05013,-0.130225 0.03476,-0.02744 0.08818,-0.04134 0.160714,-0.04134 h 0.106453 v -0.665082 z m 2.019515,0 v 0.665593 h 0.115755 c 0.05893,0 0.10473,0.01125 0.137976,0.03411 0.03475,0.02057 0.05219,0.0492 0.05219,0.08578 0,0.03658 -0.0044,0.07646 -0.01344,0.119889 -0.0076,0.04116 -0.01792,0.07755 -0.03152,0.109554 l -0.178284,0.444418 h 0.689364 l 0.132292,-0.320911 c 0.07857,-0.187472 0.146141,-0.313225 0.202054,-0.377238 0.05742,-0.06401 0.121216,-0.0956 0.192237,-0.0956 h 0.09767 v -0.665595 z m 6.095235,0 v 0.665076 h 0.158647 c 0.110308,0 0.181173,0.023 0.212907,0.06873 0.03173,0.04344 0.04754,0.154469 0.04754,0.332796 v 0.392741 h 1.024744 v -0.392741 c 0,-0.178332 0.01474,-0.289363 0.04496,-0.332796 0.03173,-0.04573 0.10367,-0.06873 0.215491,-0.06873 h 0.172082 v -0.665076 z m 2.116667,0 v 0.665593 h 0.158647 c 0.108799,0 0.178552,0.02035 0.208772,0.0615 0.03022,0.04115 0.04548,0.154329 0.04548,0.339514 v 0.392741 h 0.632002 v -0.413412 c 0,-0.169188 0.01526,-0.274079 0.04548,-0.315226 0.03173,-0.04343 0.102041,-0.06511 0.210839,-0.06511 h 0.142627 v -0.6656 z m 1.561662,0 v 0.665593 h 0.156579 c 0.110311,0 0.18062,0.02168 0.21084,0.06511 0.03022,0.04115 0.04547,0.152998 0.04547,0.335897 v 0.392741 h 1.02216 v -0.763261 h 0.305925 c 0.18133,0 0.307767,0.04816 0.378788,0.144177 0.07253,0.09602 0.10852,0.262976 0.10852,0.500745 0,0.04596 -0.0089,0.0779 -0.0124,0.118339 h 1.028878 c 0.01715,-0.08986 0.02842,-0.183799 0.02842,-0.286288 0,-0.393233 -0.09374,-0.68727 -0.28112,-0.8816 -0.185863,-0.19433 -0.46821,-0.291455 -0.847493,-0.291455 z m 3.348116,0 v 0.665076 h 0.147278 c 0.09217,0 0.16848,0.04734 0.228926,0.141077 0.06196,0.09145 0.114273,0.236213 0.15658,0.435115 l 0.04547,0.218075 h 0.990637 l -0.08888,-0.434082 v -0.0067 c -0.0091,-0.0663 -0.01344,-0.124367 -0.01344,-0.174667 0,-0.0663 0.01474,-0.112312 0.04496,-0.137459 0.03173,-0.02744 0.09223,-0.04134 0.181385,-0.04134 h 0.172599 v -0.665095 z m 2.121317,0 v 0.665593 h 0.15658 c 0.09369,0 0.155815,0.01257 0.186035,0.03772 0.03173,0.02515 0.04754,0.07197 0.04754,0.14056 0,0.01829 -0.0022,0.04211 -0.0067,0.07183 -0.003,0.02743 -0.0085,0.06035 -0.01602,0.09922 l -0.09509,0.444418 h 0.633036 l 0.0739,-0.337964 c 0.03778,-0.178321 0.08247,-0.298452 0.133842,-0.360185 0.05138,-0.06401 0.125498,-0.0956 0.222208,-0.0956 h 0.113172 0.120406 c 0.110311,0 0.18062,0.02168 0.21084,0.06511 0.03022,0.04115 0.04496,0.152998 0.04496,0.335897 v 0.392741 h 1.018026 v -0.794267 h 0.398942 0.0925 c 0.188885,0 0.32569,0.01953 0.410311,0.05839 0.08462,0.03658 0.156557,0.09946 0.21549,0.188619 0.05138,0.07773 0.09444,0.180997 0.129191,0.309025 0.01615,0.05703 0.03022,0.161236 0.04548,0.238229 h 0.55087 v -1.459336 h -3.237011 z m 4.846216,0 v 0.665076 h 0.08837 c 0.08462,0 0.162,0.03691 0.23151,0.110071 0.06951,0.07087 0.134374,0.181904 0.19482,0.332796 l 0.140043,0.3514 h 1.067119 l -0.1757,-0.434082 c -0.01814,-0.04572 -0.0312,-0.08211 -0.03876,-0.109554 -0.0061,-0.02744 -0.0093,-0.05392 -0.0093,-0.07906 0,-0.05944 0.01688,-0.102785 0.05013,-0.130225 0.03476,-0.02744 0.08818,-0.04134 0.160714,-0.04134 h 0.106453 v -0.665082 z m 2.019515,0 v 0.665593 H 90.1361 c 0.05893,0 0.105246,0.01125 0.138493,0.03411 0.03475,0.02057 0.05168,0.0492 0.05168,0.08578 0,0.03658 -0.0044,0.07646 -0.01344,0.119889 -0.0076,0.04116 -0.01792,0.07755 -0.03152,0.109554 l -0.178284,0.444418 h 0.689364 l 0.132292,-0.320911 c 0.07857,-0.187472 0.146141,-0.313225 0.202054,-0.377238 0.05742,-0.06401 0.121733,-0.0956 0.192754,-0.0956 h 0.09715 v -0.665595 z m -32.176847,1.21388 v 0.04134 c 0,0.08026 -0.0081,0.138774 -0.01344,0.204122 h 0.403076 v -0.245462 z m 28.654581,0 v 0.04134 c 0,0.08026 -0.0081,0.138774 -0.01344,0.204122 h 0.403081 v -0.245462 z" />
    <path
       id="path26"
       style="fill:#fab161;fill-opacity:1;stroke:#000000;stroke-width:0;stroke-linejoin:round;stroke-dasharray:none;paint-order:markers fill stroke"
       d="m 91.535182,80.016821 v 1.599902 h 1.881338 v -1.599902 z" />
    <path
       id="path27"
       style="fill:#9461fa;fill-opacity:1;stroke:#000000;stroke-width:0;stroke-linejoin:round;stroke-dasharray:none;paint-order:markers fill stroke"
       d="m 91.539572,81.716459 v 1.600419 h 3.877343 v -1.600419 z" />
    <rect
       style="fill:#61fa79;fill-opacity:1;stroke:#000000;stroke-width:0;stroke-linejoin:round;stroke-dasharray:none;paint-order:markers fill stroke"
       id="rect27"
       width="0.78102946"
       height="1.5999998"
       x="91.531281"
       y="78.316658" />
  </g>
</svg>
